PathFileType	4	(X/Y/Z)	C:\Users\86182\Documents\cortex\Trimmed_M4_H3.trc
DataRate	CameraRate	NumFrames	NumMarkers	Units	OrigDataRate	OrigDataStartFrame	OrigNumFrames
100.00	100.00	       58	2	mm	100.00	1	       901
Frame#	Time	gripper			box			
		X1	Y1	Z1	X2	Y2	Z2	

1	0.000	277.12857	150.05496	192.44055	281.00519	146.39665	57.40445	
2	0.010	277.12811	150.05507	192.44058	281.00446	146.39517	57.40747	
3	0.020	277.12766	150.05522	192.44069	281.00497	146.39354	57.41087	
4	0.030	277.12750	150.05545	192.44101	281.00717	146.39197	57.41414	
5	0.040	277.12793	150.05571	192.44157	281.01080	146.39064	57.41683	
6	0.050	277.12894	150.05598	192.44234	281.01498	146.38962	57.41873	
7	0.060	277.13022	150.05626	192.44319	281.01837	146.38873	57.41985	
8	0.070	277.13126	150.05647	192.44388	281.01965	146.38773	57.42041	
9	0.080	277.13159	150.05659	192.44418	281.01801	146.38649	57.42080	
10	0.090	277.13110	150.05659	192.44403	281.01370	146.38507	57.42149	
11	0.100	277.13007	150.05650	192.44354	281.00787	146.38367	57.42275	
12	0.110	277.12897	150.05634	192.44293	281.00177	146.38251	57.42440	
13	0.120	277.12823	150.05612	192.44234	280.99628	146.38174	57.42593	
14	0.130	277.12802	150.05585	192.44183	280.99167	146.38135	57.42707	
15	0.140	277.12830	150.05562	192.44153	280.98810	146.38135	57.42788	
16	0.150	277.12900	150.05547	192.44151	280.98569	146.38202	57.42833	
17	0.160	277.12985	150.05540	192.44168	280.98450	146.38353	57.42818	
18	0.170	277.13058	150.05537	192.44186	280.98419	146.38562	57.42733	
19	0.180	277.13092	150.05533	192.44188	280.98419	146.38780	57.42610	
20	0.190	277.13089	150.05522	192.44168	280.98410	146.38962	57.42503	
21	0.200	277.13052	150.05508	192.44135	280.98401	146.39084	57.42450	
22	0.210	277.13007	150.05496	192.44099	280.98453	146.39136	57.42447	
23	0.220	277.12964	150.05489	192.44075	280.98621	146.39124	57.42459	
24	0.230	277.12943	150.05490	192.44069	280.98917	146.39067	57.42459	
25	0.240	277.12933	150.05499	192.44083	280.99292	146.38976	57.42464	
26	0.250	277.12933	150.05516	192.44110	280.99673	146.38847	57.42501	
27	0.260	277.12936	150.05539	192.44148	281.00006	146.38695	57.42562	
28	0.270	277.12946	150.05565	192.44194	281.00311	146.38580	57.42585	
29	0.280	277.12970	150.05594	192.44249	281.00610	146.38593	57.42512	
30	0.290	277.13025	150.05621	192.44312	281.00858	146.38783	57.42352	
31	0.300	277.13104	150.05644	192.44374	281.01010	146.39108	57.42168	
32	0.310	277.13181	150.05656	192.44418	281.01086	146.39447	57.42017	
33	0.320	277.13208	150.05652	192.44418	281.01144	146.39697	57.41925	
34	0.330	277.13159	150.05627	192.44363	281.01236	146.39830	57.41882	
35	0.340	277.13037	150.05591	192.44264	281.01370	146.39870	57.41858	
36	0.350	277.12885	150.05553	192.44153	281.01505	146.39847	57.41833	
37	0.360	277.12729	150.05522	192.44055	281.01566	146.39777	57.41811	
38	0.370	277.12604	150.05502	192.43983	281.01508	146.39680	57.41812	
39	0.380	277.12518	150.05489	192.43935	281.01361	146.39561	57.41837	
40	0.390	277.12476	150.05479	192.43907	281.01184	146.39417	57.41862	
41	0.400	277.12454	150.05478	192.43898	281.01010	146.39235	57.41875	
42	0.410	277.12427	150.05489	192.43909	281.00842	146.39020	57.41882	
43	0.420	277.12378	150.05516	192.43938	281.00677	146.38786	57.41896	
44	0.430	277.12308	150.05559	192.43983	281.00516	146.38571	57.41934	
45	0.440	277.12225	150.05611	192.44043	281.00369	146.38434	57.42004	
46	0.450	277.12161	150.05661	192.44106	281.00241	146.38431	57.42085	
47	0.460	277.12146	150.05702	192.44168	281.00128	146.38577	57.42156	
48	0.470	277.12177	150.05734	192.44231	281.00043	146.38815	57.42221	
49	0.480	277.12216	150.05765	192.44293	281.00018	146.39058	57.42290	
50	0.490	277.12231	150.05794	192.44345	281.00098	146.39246	57.42362	
51	0.500	277.12222	150.05818	192.44382	281.00290	146.39378	57.42426	
52	0.510	277.12225	150.05829	192.44402	281.00577	146.39465	57.42473	
53	0.520	277.12286	150.05821	192.44408	281.00928	146.39513	57.42491	
54	0.530	277.12421	150.05794	192.44405	281.01315	146.39516	57.42456	
55	0.540	277.12585	150.05751	192.44388	281.01715	146.39476	57.42334	
56	0.550	277.12732	150.05705	192.44359	281.02109	146.39394	57.42104	
57	0.560	277.12823	150.05667	192.44325	281.02481	146.39255	57.41787	
58	0.570	277.12854	150.05644	192.44296	281.02820	146.39067	57.41442	
